# xmcd CD database file
#
# Track frame offsets:
#	150
#	24385
#	48284
#	74073
#	97330
#	118059
#	144934
#	175090
#	199515
#	210658
#
# Disc length: 3089 seconds
#
# Revision: 0
# Processed by: cddbd v1.5.2PL0 Copyright (c) Steve Scherf et al.
# Submitted via: CDex 1.51
#
DISCID=900c0f0a
DTITLE=Nighthawks - Rio Bravo
DYEAR=2014
DGENRE=Jazz
TTITLE0=Still Happy
TTITLE1=El Camino Pacifico
TTITLE2=Camel Eyes
TTITLE3=Valpariso
TTITLE4=Detroit Bel Air
TTITLE5=20th Century Dogs
TTITLE6=Fortune
TTITLE7=Chevrolet Nomad
TTITLE8=Rio Grande
TTITLE9=A California
EXTD=YEAR: 2014
EXTT0=
EXTT1=
EXTT2=
EXTT3=
EXTT4=
EXTT5=
EXTT6=
EXTT7=
EXTT8=
EXTT9=
PLAYORDER=
